<svg width="172" height="49" viewBox="0 0 172 49" fill="none" xmlns="http://www.w3.org/2000/svg">
<g clip-path="url(#clip0_1_188)">
<path d="M75.7221 30.1195C75.7221 30.1195 75.7185 12.0559 75.7185 1.94491C75.7185 1.82071 75.7087 1.69651 75.7006 1.57414L75.6594 0.820652H66.2084V39.8458H51.0419V0.820652H41.5891L41.5631 1.43154C41.5613 1.50054 41.5577 1.56402 41.5532 1.62475C41.5452 1.74067 41.5398 1.84647 41.5398 1.95227L41.538 7.73917C41.5362 18.6717 41.5335 29.6052 41.5416 40.5395C41.5479 45.1635 45.4868 48.9393 50.3217 48.9558C52.8622 48.966 55.4225 48.9678 57.9658 48.9678C61.0027 48.9678 64.0091 48.9641 66.917 48.9577C69.2094 48.954 71.225 48.1839 72.9065 46.6742C74.7152 45.0568 75.6379 43.0447 75.7248 40.5267L75.7481 39.8642H66.2836L75.723 30.1176L75.7221 30.1195Z" fill="#0347FF"/>
<path d="M162.488 9.71812L162.496 48.9347H171.936L172 0L162.488 9.71812Z" fill="#0347FF"/>
<path d="M117.116 40.4586C117.12 37.4603 117.116 34.4582 117.112 31.4599L117.106 28.7367C117.104 24.9011 114.435 21.648 110.684 20.6479C110.549 20.6111 107.725 20.3176 107.588 20.2891H92.4804V9.92512H107.588V20.2891L117.128 15.7341C117.128 15.7341 117.119 13.5767 117.119 12.4993C117.119 11.422 117.118 10.3318 117.11 9.25259C117.105 8.69874 117.048 8.15225 116.935 7.62693C116.072 3.60002 112.46 0.786614 108.152 0.782934C102.841 0.781094 97.5294 0.782934 92.2198 0.782934H82.9792V48.9623H92.4813C97.7372 48.9623 102.995 48.9604 108.251 48.954C108.883 48.954 109.489 48.897 110.05 48.7847C114.203 47.9457 117.109 44.5214 117.114 40.4577M107.62 39.0611V39.8348H92.4769V29.4469H107.622C107.626 32.276 107.622 36.7426 107.62 39.0611Z" fill="#0347FF"/>
<path d="M156.043 8.24977C155.567 4.08211 151.782 0.808692 147.426 0.798572C140.155 0.782012 121.716 0.796732 121.716 0.796732L131.228 10.594H146.208C144.032 14.1894 139.91 20.8761 135.571 27.9197C130.682 35.8558 125.626 44.0623 123.566 47.5004C123.502 47.6126 123.443 47.7267 123.372 47.8675L122.79 48.9899L126.531 48.988C128.54 48.9862 130.619 48.9844 132.666 49H132.679C133.346 49 133.778 48.7516 134.125 48.1729C140.317 37.8218 146.904 26.8304 154.854 13.5859C155.855 11.9216 156.254 10.1248 156.042 8.24885L156.043 8.24977Z" fill="#0347FF"/>
<path d="M24.7089 48.9595H34.1304L34.1895 48.2631C34.1975 48.1711 34.2029 48.0938 34.2029 48.0183C34.2029 41.6003 34.1949 28.7597 34.1949 28.7495L34.0578 20.3572H24.6766C25.1828 20.1124 34.1178 18.2982 34.1671 12.584V0.833532H24.6766V20.3351H9.49404V0.820652H0L0.0456875 48.9696H9.51823V29.5012H24.7089V48.9595Z" fill="#0347FF"/>
</g>
<defs>
<clipPath id="clip0_1_188">
<rect width="172" height="49" fill="white"/>
</clipPath>
</defs>
</svg>
